<?xml version="1.0" encoding="UTF-8" standalone="no"?>
<!-- Created with Inkscape (http://www.inkscape.org/) -->

<svg
   version="1.1"
   id="svg1"
   width="400"
   height="400"
   viewBox="0 0 400 400"
   sodipodi:docname="logo.svg"
   inkscape:version="1.4 (86a8ad7, 2024-10-11)"
   inkscape:export-filename="logo.png"
   inkscape:export-xdpi="96"
   inkscape:export-ydpi="96"
   xmlns:inkscape="http://www.inkscape.org/namespaces/inkscape"
   xmlns:sodipodi="http://sodipodi.sourceforge.net/DTD/sodipodi-0.dtd"
   xmlns="http://www.w3.org/2000/svg"
   xmlns:svg="http://www.w3.org/2000/svg">
  <defs
     id="defs1" />
  <sodipodi:namedview
     id="namedview1"
     pagecolor="#505050"
     bordercolor="#eeeeee"
     borderopacity="1"
     inkscape:showpageshadow="0"
     inkscape:pageopacity="0"
     inkscape:pagecheckerboard="0"
     inkscape:deskcolor="#505050"
     showguides="false"
     inkscape:zoom="2"
     inkscape:cx="139.25"
     inkscape:cy="191.25"
     inkscape:window-width="1920"
     inkscape:window-height="1017"
     inkscape:window-x="-8"
     inkscape:window-y="-8"
     inkscape:window-maximized="1"
     inkscape:current-layer="svg1"
     inkscape:export-bgcolor="#ffffff00">
    <inkscape:page
       x="0"
       y="0"
       width="400"
       height="400"
       id="page2"
       margin="0"
       bleed="0" />
  </sodipodi:namedview>
  <g
     inkscape:groupmode="layer"
     inkscape:label="Image"
     id="g1">
    <path
       style="fill:none;fill-opacity:1;stroke:none"
       d="M 0,0 H 400 V 400 H 0 V 0 m 211.73813,140.69888 c -1.75816,5.25374 -6.5557,22.51596 -8.58294,29.34244 13.26912,0 40.36276,0.11512 52.90066,-0.24253 4.51435,-7.86757 10.78025,-21.56036 15.09934,-29.10917 m -109.61305,14.04497 c -3.83874,10.46711 -10.42978,30.7288 -15.97016,47.3756 -5.54039,16.64679 -19.93745,58.87604 -19.93745,58.87604 11.36778,-3.2331 41.54049,-8.48153 41.54049,-8.48153 l 17.1121,-53.69752 17.09212,-57.31406 m -1.18468,36.69641 c 0,0 -6.26676,20.15307 -9.20833,30.35868 5.38586,0.35441 49.26723,0.41941 54.64975,0.43331 1.65853,-7.1111 5.91661,-23.90386 7.70723,-31.00554 m -20.24389,39.18312 c -10.31631,0.35024 -33.9144,0.21486 -44.37399,0.21486 l -10.6744,34.36259 64.51105,-0.30222 c -1.53201,-6.66342 -8.23862,-29.55187 -9.46266,-34.27523 z"
       id="path1"
       sodipodi:nodetypes="cccccccccczccccccccccccc" />
  </g>
  <path
     style="fill:none;fill-opacity:1;stroke:#ff2a2a;stroke-width:0.675849;stroke-opacity:0;paint-order:markers fill stroke"
     d="m 126.58012,259.60413 c 0.14925,-0.41473 8.11545,-24.08417 17.70266,-52.59877 l 17.4313,-51.84472 19.29314,-6.43532 c 10.61122,-3.53942 19.37812,-6.35034 19.48199,-6.24647 0.51808,0.51809 -32.7722,108.84113 -33.67833,109.58568 -0.11779,0.0968 -6.2968,1.33047 -13.73113,2.74154 -7.43434,1.41105 -16.49913,3.23753 -20.14398,4.05884 -4.22253,0.95147 -6.52855,1.21968 -6.35565,0.73922 z"
     id="path2" />
  <path
     style="fill:#000000;fill-opacity:1;stroke:#ff2a2a;stroke-width:0.675849;stroke-opacity:0;paint-order:markers fill stroke"
     d="m 126.58012,259.82589 c 0,0 8.11545,-24.30593 17.70266,-52.82053 l 17.4313,-51.84472 19.29314,-6.43532 c 10.61122,-3.53942 18.68434,-6.26103 20.44446,-6.78216 -5.95371,19.07325 -34.6408,110.24637 -34.6408,110.24637 0,0 -6.2968,1.20547 -13.73113,2.61654 -7.43434,1.41105 -16.09033,3.16471 -19.78494,3.86876 -4.25757,0.81133 -6.71469,1.15106 -6.71469,1.15106 z"
     id="path3"
     sodipodi:nodetypes="cscsccssc" />
  <path
     style="fill:#000000;fill-opacity:1;stroke:#ff2a2a;stroke-width:0.706866;stroke-opacity:0;paint-order:markers fill stroke"
     d="m 201.21803,181.05045 c 17.5105,0.12819 29.98519,0.0511 47.29129,0.0557 -0.0346,3.59533 -0.0201,8.82739 -0.0444,14.20787 -0.0241,5.38046 0.0117,10.90502 0.005,15.15248 -9.70604,0.0863 -19.75439,0.12955 -29.48831,0.15492 -9.05497,0.0156 -26.82618,0.0627 -26.82618,0.0627 3.03677,-9.81281 9.0626,-29.63367 9.0626,-29.63367 z"
     id="path5"
     sodipodi:nodetypes="ccscccc" />
  <path
     style="fill:#000000;fill-opacity:1;stroke:#ff2a2a;stroke-width:0.654879;stroke-opacity:0;paint-order:markers fill stroke"
     d="m 267.13157,141.32183 c -1.24093,2.69247 -10.33022,23.79229 -14.45041,32.6062 -16.40644,0.0521 -32.96055,0.0416 -49.37519,0.0963 3.42618,-13.48444 7.20256,-24.93175 9.5597,-32.49301 0,0 35.72846,-0.16385 54.2659,-0.20949 z"
     id="path6"
     sodipodi:nodetypes="ccccc" />
  <path
     style="fill:#ffffff;fill-opacity:0;stroke:#ff2a2a;stroke-width:0.477897;stroke-opacity:0;paint-order:markers fill stroke"
     d="M 0,200 V 0.23894863 H 200 400 V 200 399.76105 H 200 0 Z m 135.77758,58.83573 c 4.56965,-1.00864 13.3622,-2.75838 19.53903,-3.8883 6.17682,-1.12993 11.48182,-2.28868 11.78889,-2.575 0.83991,-0.78317 15.84455,-48.23513 25.77108,-81.50074 4.81979,-16.15199 8.70296,-29.42755 8.62927,-29.50124 -0.0737,-0.0737 -9.17181,2.87955 -20.21805,6.56277 l -20.08405,6.69676 -6.36118,18.9813 c -3.49866,10.43973 -11.48993,34.16983 -17.75839,52.73358 -6.26846,18.56374 -11.3972,34.00834 -11.3972,34.32133 0,0.33781 0.36211,0.45413 0.89108,0.28625 0.4901,-0.15555 4.62988,-1.10807 9.19952,-2.11671 z m 92.09791,-7.22212 14.97226,-7.1e-4 -0.34099,-1.55316 c -0.56256,-2.56246 -9.15746,-32.88573 -9.35193,-32.99411 -0.099,-0.0551 -10.18668,-0.0385 -22.41717,0.037 l -22.23724,0.13728 -5.20644,16.82807 c -2.86353,9.25544 -5.31278,17.13244 -5.44275,17.50443 -0.2023,0.57897 2.30434,0.63068 17.40783,0.35913 9.70429,-0.17447 24.38168,-0.31754 32.61643,-0.31793 z m 21.83863,-58.10551 c 2.10978,-8.56175 3.72269,-15.61217 3.58423,-15.66759 -0.13847,-0.0554 -12.21359,-0.0187 -26.83361,0.0816 l -26.58186,0.18237 -1.01575,3.42088 c -0.55867,1.88149 -2.61276,8.6897 -4.56466,15.12937 l -3.5489,11.70848 1.27793,0.30188 c 0.70287,0.16604 13.1059,0.32617 27.56229,0.35586 l 26.28435,0.054 z m 1.50015,-23.44957 5.33613,-0.30749 7.32814,-14.36541 c 4.03048,-7.90097 7.39984,-14.53581 7.48745,-14.7441 0.0876,-0.20827 -13.3048,-0.37869 -29.76093,-0.37869 h -29.92023 l -0.42177,1.10933 c -0.66708,1.75455 -8.15673,27.90646 -8.15673,28.48118 0,0.57897 38.75293,0.74426 48.10794,0.20518 z"
     id="path7" />
  <path
     style="fill:#000000;fill-opacity:1;stroke:#ff2a2a;stroke-width:0.676593;stroke-opacity:0;paint-order:markers fill stroke"
     d="M 272.71994,251.60744 C 270.72508,248.53022 260.93999,233.6027 260.80647,233.384 l -9.66566,-15.83355 c -12.24354,-0.0426 -41.1323,-0.034 -61.10725,-0.0365 0,0 -9.34665,29.75777 -10.76271,34.26941 0,0 83.29348,-0.109 93.44909,-0.17593 z"
     id="path6-2"
     sodipodi:nodetypes="csccccc" />
</svg>
